<?xml version="1.0" standalone="no"?>
<!DOCTYPE svg PUBLIC "-//W3C//DTD SVG 20010904//EN"
 "http://www.w3.org/TR/2001/REC-SVG-20010904/DTD/svg10.dtd">
<svg version="1.0" xmlns="http://www.w3.org/2000/svg"
 width="4000.000000pt" height="4000.000000pt" viewBox="0 0 4000.000000 4000.000000"
 preserveAspectRatio="xMidYMid meet">
<metadata>
Created by potrace 1.16, written by Peter Selinger 2001-2019
</metadata>
<g transform="translate(0.000000,4000.000000) scale(0.100000,-0.100000)"
fill="#000000" stroke="none">
<path d="M21027 36279 c-1057 -63 -2040 -321 -2952 -776 -606 -303 -1086 -626
-1627 -1097 -133 -116 -470 -451 -599 -596 -825 -924 -1397 -2018 -1673 -3195
-116 -498 -172 -937 -192 -1517 l-7 -188 -691 -2 -691 -3 -925 -298 c-509
-164 -1015 -328 -1125 -363 -110 -36 -218 -76 -240 -89 -48 -28 -89 -83 -104
-140 -24 -88 -10 -134 79 -269 232 -353 394 -684 550 -1127 l48 -136 -66 -32
c-220 -108 -462 -309 -674 -561 -359 -427 -653 -1119 -747 -1761 -37 -245 -44
-386 -38 -723 6 -361 22 -531 83 -881 152 -865 506 -1764 973 -2465 586 -881
1324 -1485 2149 -1760 132 -43 391 -110 429 -110 13 0 23 -4 23 -8 0 -4 -28
-143 -61 -307 -83 -405 -84 -503 -7 -675 49 -110 149 -220 256 -283 49 -30 53
-34 47 -62 -22 -108 -110 -651 -139 -855 -144 -1006 -234 -2099 -263 -3220
-10 -371 -10 -1685 0 -2095 31 -1293 143 -2899 302 -4350 14 -126 25 -234 25
-241 0 -6 -46 -41 -102 -77 -409 -262 -634 -652 -689 -1192 -20 -198 0 -508
43 -673 11 -42 21 -87 21 -99 1 -11 5 -19 8 -17 10 6 40 -67 33 -78 -5 -7 -2
-8 6 -3 9 6 12 4 8 -7 -4 -8 -2 -21 4 -29 8 -11 8 -9 4 6 -6 20 -6 20 9 0 9
-11 13 -25 11 -32 -3 -7 -2 -12 3 -10 12 3 111 -109 103 -118 -4 -5 -2 -5 4
-2 14 8 57 -36 47 -48 -5 -4 -3 -5 3 -2 7 4 38 -11 70 -32 72 -48 163 -86 262
-112 73 -18 140 -19 2219 -19 2327 0 2216 -2 2436 55 54 14 103 22 109 19 6
-4 8 -2 4 4 -3 6 9 15 31 23 21 6 60 23 86 36 26 13 53 21 59 17 7 -5 8 -2 3
6 -6 10 -4 12 11 6 10 -4 15 -4 12 -1 -4 4 26 29 65 55 83 56 179 146 221 208
28 41 30 53 38 175 7 110 9 1396 5 3002 -1 278 3 379 17 490 41 334 101 602
198 894 l61 184 29 -64 c154 -337 257 -615 327 -889 126 -486 216 -1164 239
-1792 l7 -188 -95 -97 c-190 -195 -319 -437 -376 -706 -22 -105 -42 -288 -50
-447 -6 -130 -3 -191 22 -440 6 -61 53 -218 87 -293 19 -40 32 -78 29 -85 -2
-7 0 -11 5 -10 4 2 10 -1 12 -7 3 -5 17 -23 32 -40 20 -21 25 -32 16 -37 -8
-5 -7 -8 5 -8 9 0 25 -10 35 -22 32 -40 187 -171 203 -174 21 -3 78 -39 73
-47 -3 -6 -2 -7 4 -4 6 4 49 -7 96 -23 47 -16 123 -34 169 -40 58 -8 626 -10
1893 -7 1703 3 1817 4 1925 21 63 11 125 19 138 20 12 1 22 4 22 7 0 4 18 9
40 13 96 15 332 103 412 153 20 12 43 24 50 25 7 2 19 11 26 21 7 9 18 17 24
17 5 0 38 25 72 55 35 30 66 51 70 47 4 -4 6 0 4 8 -2 9 3 14 12 12 8 -2 12 0
8 4 -4 4 16 35 45 68 49 56 134 186 150 229 4 10 11 16 16 13 5 -3 12 1 15 10
3 8 2 12 -4 9 -13 -8 -13 0 0 23 9 16 38 87 40 97 0 3 8 26 16 52 28 91 44
239 51 465 l6 228 2196 2 2196 3 41 22 c58 31 119 104 133 158 8 32 11 876 11
3073 0 3378 6 3092 -71 3172 -79 81 20 75 -1216 78 l-1101 2 82 123 c170 252
287 509 386 847 97 329 148 631 195 1140 3 30 10 177 16 325 11 287 6 559 -17
965 -7 134 -43 571 -49 595 -2 10 0 78 6 150 5 71 86 1264 180 2650 185 2732
183 2691 139 2897 -80 380 -310 718 -629 923 -146 94 -234 128 -920 355 -374
124 -680 228 -681 231 0 3 18 15 40 28 64 36 386 252 495 332 211 155 501 392
663 544 42 38 46 40 95 35 29 -3 133 -5 232 -4 252 0 393 29 685 139 63 24
158 56 210 70 534 147 1047 624 1365 1270 133 270 213 502 270 786 70 352 74
757 10 1064 -15 70 -21 109 -51 305 -35 233 -116 494 -219 706 -53 110 -173
303 -245 394 -19 24 -19 32 -9 190 23 339 1 957 -47 1325 -160 1253 -622 2413
-1360 3416 -640 870 -1495 1622 -2429 2136 -947 521 -1955 824 -3062 919 -206
18 -802 26 -1006 13z m863 -460 c991 -59 1999 -344 2885 -817 1034 -551 1928
-1362 2570 -2332 625 -944 1003 -2011 1110 -3130 19 -201 35 -653 28 -772 l-6
-87 -86 43 c-318 159 -634 205 -1023 150 l-48 -7 0 73 c0 40 -7 150 -16 244
-138 1533 -812 3033 -1915 4261 -148 164 -487 499 -644 636 -698 606 -1440
1055 -2240 1357 -359 135 -788 262 -1161 343 l-199 44 115 6 c139 6 406 1 630
-12z m-1455 -234 c531 -56 1014 -159 1565 -331 916 -288 1748 -759 2510 -1419
290 -251 721 -708 973 -1031 781 -1000 1293 -2189 1451 -3364 29 -217 46 -413
49 -563 l2 -108 -105 -48 c-58 -25 -146 -70 -195 -98 l-90 -52 -6 242 c-51
1900 -1056 3792 -2672 5031 -737 564 -1549 947 -2517 1186 -743 183 -1494 235
-2180 150 -525 -65 -1072 -221 -1542 -439 -49 -22 -88 -38 -88 -36 0 7 369
224 516 303 416 223 931 430 1415 567 l124 35 320 -4 c192 -3 380 -11 470 -21z
m-275 -1569 c202 -23 390 -52 560 -87 824 -169 1640 -533 2215 -987 80 -64
281 -259 274 -266 -2 -3 -81 13 -174 34 -545 126 -1191 215 -1804 250 -235 13
-777 13 -991 0 -748 -46 -1374 -174 -1950 -397 -195 -76 -429 -188 -574 -275
-369 -222 -708 -544 -947 -898 -261 -387 -475 -807 -644 -1265 -243 -660 -404
-1311 -456 -1844 l-12 -124 -53 105 -53 106 40 128 c33 106 39 139 36 187 -10
122 -95 206 -227 226 l-45 6 -17 75 c-146 615 -105 1226 128 1883 85 242 190
456 370 759 703 1181 1584 1957 2563 2257 226 70 471 113 791 140 168 15 801
6 970 -13z m4520 -4023 c251 -51 494 -257 621 -527 212 -453 112 -1015 -241
-1349 -122 -116 -238 -181 -400 -224 -100 -27 -292 -24 -395 5 -318 91 -559
355 -661 723 -32 117 -44 352 -24 488 36 252 169 508 346 670 216 198 474 272
754 214z m3155 -1488 c198 -30 379 -102 537 -215 83 -59 249 -220 296 -287
l23 -32 -57 25 c-157 69 -426 102 -615 75 -791 -116 -1529 -915 -1789 -1936
-61 -240 -82 -396 -88 -658 -6 -315 14 -493 86 -742 85 -296 250 -568 444
-735 42 -36 75 -66 73 -68 -1 -2 -49 7 -106 18 -397 81 -713 340 -919 755
-139 280 -205 551 -225 925 -18 316 51 774 166 1107 272 790 812 1416 1436
1667 255 102 503 136 738 101z m-14148 -167 c181 -290 345 -732 448 -1211 30
-142 85 -459 85 -493 l0 -24 -320 0 -319 0 -6 33 c-3 17 -17 104 -31 192 -85
532 -232 1052 -410 1448 -29 67 -54 125 -54 129 0 5 125 8 278 8 l277 0 52
-82z m1363 75 c0 -4 -27 -101 -59 -217 -139 -491 -250 -987 -316 -1411 -14
-88 -25 -164 -25 -168 0 -5 -14 -7 -32 -5 l-32 3 -18 120 c-88 587 -244 1135
-434 1520 -41 82 -74 153 -74 157 0 4 223 8 495 8 272 0 495 -3 495 -7z
m-2463 -120 c153 -288 331 -831 423 -1291 28 -138 81 -455 77 -458 -21 -18
-211 -104 -217 -98 -4 5 -19 72 -34 149 -59 299 -194 785 -231 825 -16 17 -27
19 -109 14 -124 -8 -186 15 -272 100 -79 79 -105 144 -112 276 -4 100 -17 130
-54 130 -11 0 -158 -54 -326 -119 -169 -65 -344 -133 -390 -151 -115 -44 -119
-55 -61 -167 44 -85 44 -86 44 -192 0 -94 -3 -112 -26 -161 -29 -61 -85 -135
-92 -123 -3 4 -28 64 -57 133 -68 163 -182 395 -265 540 -45 79 -62 116 -53
120 36 13 1695 548 1704 549 5 0 29 -34 51 -76z m-597 -580 c20 -103 78 -210
154 -281 95 -88 203 -132 326 -132 l49 0 40 -127 c57 -180 106 -377 151 -602
22 -107 38 -196 37 -197 -9 -9 -309 -154 -318 -154 -6 0 -31 18 -56 40 -92 80
-248 172 -388 228 -145 57 -350 102 -469 102 l-61 0 -53 196 -53 196 30 47
c55 86 75 163 74 286 0 92 -4 121 -25 176 l-25 67 281 110 c155 61 284 111
287 111 4 1 12 -29 19 -66z m16350 15 c221 -37 420 -174 570 -393 93 -135 184
-376 221 -583 30 -167 37 -453 15 -632 -78 -637 -344 -1210 -750 -1615 -131
-130 -225 -205 -354 -283 -377 -228 -791 -234 -1081 -16 -614 462 -646 1694
-68 2637 184 301 452 576 708 728 246 146 493 199 739 157z m-3865 -409 c76
-28 157 -104 194 -183 29 -60 36 -81 50 -162 15 -84 -7 -197 -31 -162 -7 10
-8 10 -5 -2 2 -8 10 -14 16 -12 14 3 14 0 -3 -33 -12 -24 -15 -25 -19 -9 -2
11 -3 4 -1 -13 1 -18 -2 -33 -7 -33 -6 0 -7 5 -4 10 3 6 2 10 -4 10 -5 0 -9
-9 -8 -19 0 -11 5 -17 10 -14 13 8 -21 -43 -52 -78 -25 -29 -49 -40 -34 -16
14 22 13 39 -2 27 -8 -6 -12 -20 -10 -30 4 -22 -29 -55 -46 -44 -7 4 -10 3 -6
-3 8 -12 -27 -29 -77 -38 -24 -5 -36 -3 -36 4 0 6 -8 11 -17 11 -15 0 -16 -2
-3 -10 13 -9 13 -10 0 -11 -33 -3 -75 3 -78 11 -2 4 -11 6 -20 3 -9 -2 -26 3
-37 12 -19 14 -18 14 10 4 22 -7 27 -7 19 1 -6 6 -25 12 -43 15 -42 5 -67 24
-49 37 9 6 6 7 -8 3 -13 -3 -26 1 -34 10 -11 13 -10 14 4 9 9 -3 16 -1 16 6 0
6 -5 8 -10 5 -19 -12 -86 68 -110 130 -33 86 -39 228 -12 311 67 212 262 322
447 253z m-12898 -1190 c105 -14 276 -72 368 -124 484 -276 633 -886 355
-1454 -156 -318 -462 -654 -814 -891 -74 -51 -136 -122 -136 -157 0 -7 -6 -10
-14 -7 -12 5 -14 -14 -9 -123 3 -70 0 -276 -6 -456 -11 -323 -11 -330 9 -375
26 -57 62 -97 115 -125 40 -22 47 -22 730 -27 l690 -5 55 -36 c30 -20 77 -63
105 -95 27 -33 74 -85 104 -116 l54 -58 -69 -77 c-112 -127 -338 -347 -473
-462 -528 -446 -1029 -698 -1566 -788 -112 -18 -468 -26 -526 -10 -22 5 -42
41 -137 235 -301 618 -492 1250 -576 1912 -41 317 -46 811 -12 1065 80 599
294 1154 605 1570 87 116 295 327 396 403 146 109 315 178 505 206 54 8 172 5
247 -5z m3363 -479 l0 -469 -822 -3 -823 -3 -195 -88 c-107 -48 -197 -87 -200
-87 -3 0 -6 60 -7 133 -2 214 -62 488 -138 637 l-23 45 301 152 302 151 803 1
802 1 0 -470z m10311 -825 c22 -65 58 -156 80 -203 21 -47 39 -90 39 -97 0
-19 -322 -346 -473 -481 -474 -423 -989 -760 -1558 -1017 -1147 -519 -2451
-691 -3779 -497 -478 69 -1048 216 -1510 387 -207 77 -246 97 -495 264 -420
280 -757 558 -1108 914 -146 147 -307 321 -277 299 8 -6 69 -51 135 -101 990
-740 2088 -1208 3255 -1387 756 -116 1546 -100 2275 45 1191 238 2240 804
3061 1652 88 90 193 205 234 254 41 50 76 89 78 88 2 -2 21 -56 43 -120z
m-10931 -275 c0 -85 -4 -130 -11 -130 -6 0 -8 -9 -4 -20 4 -11 2 -20 -4 -20
-6 0 -11 -5 -11 -11 0 -5 4 -8 9 -5 11 7 2 -293 -10 -315 -12 -23 -11 -38 1
-19 7 11 9 5 6 -20 -6 -48 -7 -48 -17 -20 -8 22 -8 21 -3 -5 11 -56 3 -328
-13 -435 -7 -48 -7 -48 -17 -214 -4 -60 -10 -114 -14 -120 -3 -6 -6 -27 -5
-47 2 -25 -4 -42 -17 -54 -21 -19 -23 -17 -33 30 -3 11 -5 4 -5 -15 0 -19 -4
-46 -8 -60 -7 -22 -6 -23 9 -12 9 8 13 20 10 30 -6 15 -5 16 12 2 10 -8 16
-10 12 -3 -4 6 -3 14 2 17 15 10 6 -26 -10 -38 -20 -14 -56 -83 -64 -120 l-6
-30 -12 24 c-7 13 -19 25 -27 27 -10 3 -9 1 3 -7 9 -6 17 -21 17 -33 0 -18 -2
-19 -11 -7 -9 13 -10 13 -6 0 2 -8 9 -14 15 -13 5 1 12 -4 15 -11 5 -12 -48
-14 -324 -16 l-329 -1 0 22 c0 13 10 33 23 47 15 16 17 23 7 20 -17 -3 -17 15
0 117 6 33 12 80 15 105 6 54 21 160 36 250 16 100 20 132 20 175 -1 25 3 35
8 27 4 -7 6 12 3 43 -2 30 -1 55 4 55 5 0 10 44 12 97 1 53 6 101 11 107 5 6
7 30 5 54 -3 28 0 41 6 37 7 -4 8 7 5 32 -3 21 -2 87 4 148 7 85 13 112 27
122 17 12 17 13 1 13 -15 0 -16 7 -11 48 3 26 6 85 6 132 0 58 2 79 9 65 6
-14 7 -7 5 27 -3 25 -2 49 1 52 4 3 152 6 330 6 l323 0 0 -130z m531 97 c22
-23 26 -33 17 -39 -9 -5 -7 -8 7 -8 l20 -1 -20 -15 c-19 -16 -19 -16 5 -9 20
6 23 5 13 -6 -17 -17 -17 -34 0 -20 11 8 18 2 32 -27 10 -20 19 -39 19 -42 1
-3 4 -10 8 -15 3 -6 16 -35 27 -64 15 -41 18 -58 9 -68 -9 -11 -7 -12 8 -7 10
4 16 4 12 -1 -4 -4 -1 -20 7 -35 8 -15 24 -72 35 -126 20 -92 30 -134 45 -191
4 -15 2 -23 -7 -23 -11 0 -11 -2 0 -9 7 -4 14 -23 16 -42 2 -19 6 -41 9 -49 6
-16 18 -154 23 -280 2 -41 6 -88 9 -105 5 -22 4 -26 -4 -16 -7 11 -9 4 -6 -25
13 -126 13 -183 0 -208 -8 -14 -10 -26 -4 -26 5 0 9 -4 9 -10 0 -13 -54 -40
-80 -40 -11 0 -20 -4 -20 -8 0 -4 -37 -16 -82 -27 -98 -23 -287 -26 -368 -6
-3 1 2 6 10 11 12 8 12 10 1 10 -10 0 -12 8 -7 33 4 17 9 55 12 82 15 162 25
283 30 385 3 63 8 117 12 120 4 3 8 49 8 103 1 83 4 100 20 113 18 15 18 15 1
10 -18 -6 -19 0 -13 81 9 128 18 364 18 471 1 51 5 95 10 98 5 3 6 14 3 25
-10 30 1 37 66 37 55 0 64 -3 90 -31z m-1702 -167 c0 -44 -3 -80 -7 -80 -4 0
-8 -28 -9 -63 -2 -100 -12 -238 -19 -287 -4 -25 -6 -51 -5 -57 1 -7 -4 -13
-11 -13 -9 0 -9 -3 2 -11 11 -8 12 -12 2 -16 -6 -2 -10 -9 -6 -14 3 -5 -1 -9
-8 -9 -10 0 -9 -3 1 -9 13 -8 13 -21 3 -89 -7 -43 -15 -108 -17 -143 -3 -35
-6 -73 -9 -84 -2 -11 -7 -49 -11 -85 -4 -36 -8 -72 -10 -80 -2 -8 -6 -45 -10
-82 -5 -44 -14 -75 -27 -90 -13 -15 -17 -29 -12 -43 10 -28 5 -129 -6 -133 -5
-2 -7 -9 -4 -16 3 -7 0 -39 -6 -72 -16 -93 -17 -98 -19 -111 -1 -10 -123 -13
-575 -13 l-574 0 4 53 c2 28 4 100 4 160 1 59 4 105 8 103 4 -2 5 16 3 40 l-3
44 318 0 c235 1 323 4 335 13 27 21 31 48 10 83 -11 18 -18 43 -16 54 2 11 0
18 -5 15 -14 -8 -21 47 -11 82 14 49 61 105 83 100 10 -3 21 0 25 5 4 7 1 8
-7 3 -9 -6 -11 -4 -5 4 4 8 17 10 32 6 16 -4 22 -2 18 4 -7 12 23 4 43 -12 7
-5 15 -7 19 -3 10 9 63 -45 56 -57 -3 -6 -1 -7 5 -3 6 3 13 2 17 -4 4 -6 11
-7 17 -4 7 4 8 2 4 -4 -9 -16 -4 -15 30 3 16 8 36 25 46 37 l18 23 0 -22 c0
-13 4 -23 10 -23 9 0 3 26 -11 45 -6 9 -3 36 15 135 2 14 7 52 11 85 4 33 10
64 13 69 6 11 11 57 11 103 0 20 8 39 21 50 11 10 20 22 20 28 0 5 -4 3 -10
-5 -17 -28 -20 -2 -10 86 6 49 15 134 19 189 8 114 13 128 44 120 15 -4 18 -3
9 3 -11 7 -10 11 4 16 10 4 24 0 35 -10 13 -12 22 -13 36 -5 14 8 14 10 3 11
-13 0 -13 1 0 10 20 13 4 13 -21 0 -10 -6 -19 -7 -19 -2 0 11 49 34 60 27 4
-3 10 2 14 10 3 8 12 15 20 15 11 0 14 -18 15 -80z m2439 -108 c71 -89 245
-296 262 -312 64 -60 233 -257 240 -279 8 -30 8 -30 -33 -35 -112 -13 -420
-36 -425 -31 -3 3 -11 58 -18 122 -24 206 -85 484 -149 678 -5 14 1 11 16 -9
13 -17 61 -77 107 -134z m-2773 28 c3 -5 -1 -10 -9 -10 -9 0 -16 -5 -16 -11 0
-5 4 -8 9 -5 5 3 9 -6 9 -19 0 -29 0 -28 -31 -14 -18 8 -30 8 -43 0 -16 -9
-14 -10 10 -5 21 5 27 4 22 -5 -5 -7 1 -11 17 -11 23 0 24 -2 20 -62 -2 -35
-7 -70 -10 -78 -3 -8 -6 -28 -8 -45 -1 -16 -5 -40 -8 -51 -3 -12 -8 -55 -11
-95 -3 -41 -10 -96 -16 -124 -6 -27 -11 -62 -10 -77 0 -33 -1 -33 -41 -13 -16
9 -33 14 -38 11 -4 -3 -23 -1 -41 4 -20 6 -39 6 -51 0 -9 -6 -33 -11 -52 -12
-20 -2 -34 -5 -31 -7 2 -2 -17 -17 -42 -34 -25 -16 -51 -38 -57 -49 -7 -10
-15 -18 -19 -18 -15 0 -8 19 14 40 12 11 17 20 11 20 -12 0 -38 -29 -46 -53
-4 -10 -10 -16 -15 -13 -4 2 -8 -3 -8 -13 0 -10 6 -18 12 -18 7 0 10 6 7 13
-2 6 0 15 6 19 15 9 14 -28 -1 -43 -17 -17 -20 -36 -25 -129 l-4 -83 -160 0
c-151 0 -159 1 -159 20 0 10 8 24 18 30 11 8 12 10 2 7 -8 -2 -20 -14 -27 -28
-7 -14 -22 -25 -35 -25 -21 -1 -20 0 8 25 16 14 49 42 73 61 24 19 91 81 149
137 95 92 108 101 120 86 6 -9 12 -12 12 -7 0 6 -6 16 -12 23 -11 10 -5 19 27
47 22 19 39 38 38 44 -2 5 4 7 12 4 10 -4 13 -2 10 8 -3 8 7 25 21 38 15 14
24 19 19 11 -6 -10 -4 -12 4 -7 7 5 10 14 7 21 -3 8 3 19 12 27 13 11 15 11 7
-2 -5 -9 -4 -12 1 -7 5 5 9 14 9 20 0 24 42 66 62 63 13 -3 19 2 20 15 1 10
-3 19 -8 19 -6 0 -8 -4 -4 -9 3 -5 1 -12 -4 -15 -22 -14 -18 12 6 40 13 16 31
42 39 57 8 15 19 25 23 22 5 -2 8 3 7 13 0 9 4 16 11 15 8 -2 10 4 6 14 -5 12
-3 14 7 8 9 -5 11 -4 6 3 -4 7 5 29 19 49 14 21 25 44 25 51 0 7 4 11 9 8 5
-3 12 1 15 10 4 10 2 13 -6 8 -12 -8 -7 4 25 49 26 37 70 57 82 37z m12819
-268 c105 -131 286 -286 433 -370 35 -20 63 -39 63 -42 -2 -23 -432 -355 -660
-509 -1516 -1025 -3326 -1421 -5145 -1125 -88 15 -161 27 -162 28 -1 0 195 1
435 1 443 1 604 9 927 51 1518 194 2858 849 3890 1901 82 83 152 149 155 145
4 -4 32 -40 64 -80z m-9352 -924 c34 -82 122 -251 189 -362 221 -371 569 -741
936 -997 18 -13 36 -71 107 -363 l85 -349 -88 -146 c-191 -317 -410 -727 -606
-1136 -57 -120 -106 -220 -108 -222 -5 -4 -336 63 -911 187 -258 55 -516 106
-574 112 -251 26 -529 -45 -746 -191 -42 -28 -76 -48 -76 -45 0 12 109 272
182 434 162 359 342 673 510 891 32 42 58 85 58 97 0 21 -34 52 -57 52 -20 0
-163 -133 -258 -240 -349 -395 -700 -990 -981 -1665 l-91 -220 -34 5 c-19 3
-74 4 -124 3 -108 -2 -218 -33 -314 -90 -85 -51 -187 -160 -235 -253 -21 -41
-39 -76 -40 -77 -3 -5 -209 43 -311 73 -739 219 -1423 758 -1970 1552 -42 62
-75 115 -73 118 3 2 73 9 155 14 575 36 1151 268 1716 691 254 191 549 462
737 679 41 47 77 86 81 88 4 2 45 -22 93 -53 119 -77 234 -137 348 -179 114
-42 144 -45 154 -14 7 24 1 30 -117 123 -87 69 -230 213 -312 315 -69 86 -222
306 -233 334 -6 14 48 16 513 16 588 0 591 0 661 71 23 22 48 60 58 85 l17 44
123 0 c194 0 331 25 511 92 50 19 125 54 168 78 168 97 196 141 203 326 4 102
7 124 21 128 9 3 102 12 206 20 256 21 271 22 342 24 l62 2 23 -52z m1018
-405 c166 -111 427 -271 510 -313 l44 -23 -34 -29 c-19 -16 -77 -61 -127 -100
l-93 -70 -97 78 c-180 143 -400 376 -529 559 -54 77 -154 231 -154 238 0 3 71
-48 158 -113 86 -64 231 -167 322 -227z m8400 -783 c481 -160 889 -296 905
-304 l30 -13 -40 -6 c-41 -7 -462 -49 -870 -87 -259 -24 -278 -31 -283 -93 -4
-50 12 -75 56 -86 20 -6 228 -29 462 -51 850 -82 1114 -110 1121 -117 4 -5 22
-44 40 -88 45 -112 69 -240 69 -365 0 -58 -47 -805 -105 -1659 -58 -854 -105
-1561 -106 -1570 -1 -9 -6 2 -11 24 -5 22 -38 157 -73 300 -371 1522 -971
2743 -1735 3529 -235 242 -437 411 -693 581 -64 43 -116 79 -115 80 2 1 73 33
158 70 85 37 189 85 230 106 41 21 77 38 80 39 3 0 399 -131 880 -290z m-1762
-221 c177 -90 384 -225 547 -355 163 -130 460 -432 609 -619 703 -883 1236
-2214 1530 -3826 44 -237 119 -730 112 -736 -2 -2 -42 6 -90 17 -134 32 -414
77 -601 96 -233 24 -697 24 -920 0 -556 -61 -1061 -206 -1518 -438 -76 -39
-140 -68 -141 -67 -2 2 -8 38 -15 79 -75 439 -234 1167 -261 1190 -11 10 -38
100 -78 265 -165 676 -323 1120 -555 1565 -61 115 -200 337 -245 391 -51 59
-112 47 -112 -22 0 -66 200 -801 415 -1529 148 -499 170 -579 163 -585 -2 -2
-102 16 -222 40 -121 25 -222 45 -225 45 -3 0 -5 66 -2 146 4 162 -8 256 -46
378 -99 316 -315 569 -608 712 -49 25 -120 53 -156 64 -60 18 -639 144 -1779
387 -223 47 -409 89 -413 93 -10 8 8 776 24 1080 9 167 14 208 28 222 9 9 189
141 400 293 303 217 391 275 415 275 117 1 487 22 598 35 660 76 1248 255
1881 571 186 94 189 95 360 130 191 39 461 107 607 153 52 16 105 30 118 30
13 1 94 -35 180 -80z m-3478 -193 c237 -32 378 -45 625 -60 l200 -11 -161 -33
c-89 -17 -233 -41 -320 -52 -187 -23 -466 -42 -476 -31 -7 6 -88 207 -88 217
0 3 8 3 18 0 9 -3 100 -17 202 -30z m-4996 -2106 c76 -17 141 -32 143 -33 3
-4 -51 -253 -261 -1210 -37 -164 -66 -319 -66 -344 0 -52 28 -118 63 -150 21
-20 202 -139 444 -293 62 -39 115 -76 118 -81 4 -5 -30 -118 -74 -252 -44
-134 -91 -282 -105 -330 l-25 -86 18 -64 c88 -306 363 -926 559 -1261 45 -77
81 -140 80 -141 -9 -6 -1893 406 -1940 424 -117 45 -272 168 -343 273 -91 134
-138 285 -138 438 1 99 16 176 262 1325 144 671 269 1245 277 1275 64 227 270
434 504 509 149 48 260 48 484 1z m863 -185 c142 -30 268 -57 280 -60 l22 -5
-30 -68 c-107 -236 -332 -802 -464 -1162 -37 -102 -69 -186 -70 -188 -4 -4
-300 188 -303 198 -2 4 63 305 143 669 80 363 145 663 145 666 0 9 9 7 277
-50z m3409 -730 c219 -47 422 -93 449 -102 199 -63 378 -224 465 -417 49 -108
64 -180 64 -311 -1 -119 -3 -130 -267 -1355 -146 -679 -272 -1253 -280 -1276
-66 -184 -206 -341 -381 -429 -128 -63 -196 -79 -341 -79 -116 0 -139 4 -740
133 -341 73 -624 137 -628 141 -5 4 90 59 210 122 772 408 1080 571 1091 580
15 13 16 139 2 458 -5 124 -12 320 -16 437 l-7 212 24 5 c13 2 53 10 88 17
127 25 278 118 372 231 188 226 222 570 82 828 -50 92 -118 174 -187 227 -107
81 -264 143 -362 143 l-41 0 -6 107 c-10 152 -9 413 2 413 4 0 188 -38 407
-85z m-5865 44 c57 -12 105 -22 106 -23 5 -4 -295 -1397 -301 -1403 -8 -8
-226 36 -257 53 -74 38 -128 126 -129 209 0 48 178 963 201 1034 15 46 76 110
124 132 53 25 129 24 256 -2z m7334 -358 c100 -22 209 -50 243 -64 273 -111
461 -372 479 -666 7 -116 0 -155 -25 -147 -50 16 -173 24 -240 16 -195 -25
-385 -146 -479 -307 -50 -85 -71 -169 -173 -678 -85 -423 -103 -525 -103 -600
1 -289 199 -546 477 -619 32 -8 60 -17 63 -19 6 -6 -42 -232 -64 -302 -68
-218 -262 -415 -481 -489 -93 -32 -220 -50 -297 -42 -33 4 -148 25 -256 48
l-196 41 78 68 c138 122 258 304 318 484 16 50 150 650 297 1335 l267 1245 5
150 c5 213 -19 326 -122 558 l-16 38 22 -6 c13 -3 104 -23 203 -44z m-1762
-391 c204 -63 342 -297 307 -524 -28 -191 -186 -364 -357 -392 l-41 -6 -6 328
c-3 181 -9 393 -12 472 l-6 142 25 0 c14 0 54 -9 90 -20z m2878 -980 c298 -61
544 -112 546 -114 5 -4 84 -374 122 -566 61 -313 164 -940 156 -949 -3 -2
-383 72 -846 164 -730 146 -846 172 -880 194 -70 47 -109 120 -109 201 0 68
198 1030 219 1063 43 71 123 116 203 117 26 0 291 -50 589 -110z m-8711 -922
c121 -322 392 -586 710 -692 41 -13 327 -79 635 -145 308 -66 772 -166 1030
-221 259 -55 493 -107 520 -115 28 -8 86 -20 130 -26 l80 -12 112 -113 c111
-111 274 -254 290 -254 4 0 89 43 188 95 99 52 189 95 199 95 11 0 418 -85
905 -189 2211 -471 2108 -451 2246 -451 469 -1 900 290 1082 729 19 47 52 161
73 253 20 93 39 170 42 173 4 4 1369 -264 1376 -270 6 -6 63 -569 83 -835 l22
-285 -82 -85 c-294 -303 -491 -709 -531 -1090 -26 -244 23 -527 134 -775 l27
-59 -25 -101 c-14 -55 -28 -121 -31 -147 l-7 -48 -752 -2 -751 -3 -56 -27
c-62 -31 -110 -88 -128 -153 -8 -29 -11 -527 -11 -1747 l0 -1706 -97 -6 c-461
-30 -614 -44 -938 -86 -126 -16 -295 -41 -375 -56 -240 -43 -216 -43 -224 7
-32 199 -178 674 -289 939 -66 159 -76 180 -179 405 -130 283 -423 838 -642
1214 -36 62 -66 115 -66 116 0 1 48 5 108 9 569 37 1125 163 1630 370 224 91
560 265 590 303 18 25 15 60 -9 84 -28 28 -52 24 -287 -44 -605 -177 -1278
-259 -1874 -229 -233 12 -835 62 -997 83 -910 116 -1716 426 -2457 945 -121
85 -157 93 -162 39 -3 -27 13 -46 160 -190 238 -234 426 -387 688 -560 555
-367 1235 -640 1886 -756 l130 -23 59 -96 c182 -298 463 -801 610 -1090 l83
-165 -40 -55 c-112 -155 -286 -487 -362 -690 -71 -191 -152 -475 -171 -603 -4
-24 -10 -48 -13 -54 -5 -7 -35 -6 -97 3 -1285 196 -2647 232 -3700 98 -134
-17 -434 -66 -537 -87 l-67 -14 -5 46 c-3 25 -13 127 -21 226 -254 3086 -227
5721 82 7943 20 144 37 262 39 262 1 0 16 -37 34 -82z m12384 47 c170 -16 316
-36 441 -61 92 -18 339 -74 343 -78 10 -10 80 -652 102 -926 32 -417 40 -936
20 -1291 -49 -862 -234 -1507 -557 -1942 -75 -99 -203 -235 -274 -290 l-36
-27 -892 2 -893 3 43 48 c61 70 103 93 205 112 111 21 204 59 287 118 276 197
365 559 214 867 -57 117 -176 238 -293 298 -151 77 -293 97 -475 66 -257 -44
-502 -150 -710 -306 -83 -63 -229 -201 -303 -288 l-47 -55 4 145 c6 168 26
259 92 415 85 199 176 333 340 502 114 118 143 165 144 234 1 42 -23 115 -45
140 -11 13 -20 78 -34 270 -11 140 -32 370 -46 512 -22 210 -25 260 -14 267
14 9 12 33 -46 457 -19 138 -34 256 -34 261 0 13 184 117 315 178 445 208 949
340 1445 377 138 10 562 6 704 -8z m-1507 -3510 c55 -23 102 -62 134 -113 104
-165 10 -385 -181 -422 -233 -46 -363 -122 -484 -283 -50 -66 -146 -248 -146
-276 0 -8 -80 -11 -290 -11 -241 0 -290 2 -290 14 0 30 51 205 80 276 175 424
504 713 925 814 82 20 206 20 252 1z m-2517 -4210 l0 -2615 -175 0 -174 0 -4
-147 c-1 -82 -4 1095 -5 2615 l-2 2762 180 0 180 0 0 -2615z m810 10 c0 -1430
-4 -2603 -8 -2607 -4 -4 -116 -10 -249 -14 l-242 -7 -3 2609 c-2 1435 -2 2612
0 2617 2 4 116 6 253 5 l251 -3 -2 -2600z m5468 2598 l322 -6 0 -99 0 -98
-228 0 -228 0 -18 -117 c-45 -304 -119 -612 -227 -941 -44 -133 -71 -205 -185
-487 -13 -33 -66 -145 -118 -249 l-93 -188 14 -47 c23 -72 13 -230 -19 -307
-36 -87 -100 -177 -187 -264 -77 -77 -246 -197 -351 -250 -64 -32 -125 -95
-172 -179 -124 -220 -286 -387 -489 -506 -34 -20 -114 -80 -178 -133 -751
-630 -1672 -1068 -2621 -1246 -148 -28 -328 -56 -360 -56 -20 0 -20 4 -20
2590 l0 2590 2418 0 c1329 0 2562 -3 2740 -7z m-12003 -3522 c475 -32 924 -78
1340 -137 138 -20 250 -37 251 -37 0 -1 -3 -54 -7 -117 -20 -291 -29 -1266
-19 -2065 l11 -820 -23 -19 c-47 -38 -181 -97 -281 -124 l-102 -27 -2132 -3
c-2128 -2 -2131 -2 -2186 18 -102 38 -183 130 -206 235 -31 141 -39 391 -16
555 48 355 212 614 496 778 57 33 129 76 159 95 107 68 464 169 720 203 170
23 473 22 645 -1 183 -24 189 -24 193 2 2 17 -10 30 -55 60 -219 147 -498 242
-803 274 -142 15 -402 7 -523 -17 -48 -9 -90 -15 -92 -13 -7 8 -106 992 -100
998 9 8 286 59 466 85 277 41 538 65 974 90 127 7 1138 -3 1290 -13z m4875
-682 c0 -664 -1 -701 -17 -694 -85 36 -249 87 -343 108 -345 77 -731 59 -1015
-48 l-63 -24 -6 82 c-30 432 -63 756 -100 1002 -8 50 -11 93 -7 96 17 18 589
106 866 134 238 24 488 42 593 44 l92 1 0 -701z m-100 -868 l95 -6 5 -370 c5
-362 6 -371 28 -417 26 -53 79 -103 128 -124 28 -12 260 -14 1380 -14 l1347 0
-7 -222 c-9 -263 -21 -328 -83 -457 -37 -75 -62 -109 -122 -170 -92 -91 -160
-133 -289 -177 -132 -45 -273 -72 -438 -84 -176 -13 -3444 -13 -3531 -1 -127
19 -243 98 -296 203 -76 151 -94 500 -42 827 42 261 156 451 372 623 34 27 71
64 82 81 16 27 42 42 143 84 420 175 836 251 1228 224z"/>
<path d="M25448 9494 c-349 -54 -667 -281 -844 -602 -28 -52 -32 -55 -169
-122 -362 -178 -572 -379 -616 -588 -37 -178 54 -346 249 -461 135 -80 354
-147 565 -173 l102 -12 54 -58 c380 -411 1017 -490 1485 -185 185 121 352 317
436 513 26 62 26 62 125 114 374 196 569 415 568 640 0 210 -159 372 -464 474
-113 38 -275 74 -375 83 -58 5 -66 9 -116 55 -284 265 -637 379 -1000 322z
m286 -215 c132 -16 144 -25 45 -32 -126 -10 -241 -42 -364 -102 -128 -62 -214
-125 -307 -223 -171 -182 -275 -418 -295 -672 l-8 -95 -50 3 c-27 2 -54 8 -60
13 -6 6 -9 70 -9 157 2 165 17 242 78 382 134 309 420 526 751 570 88 11 121
11 219 -1z m1065 -434 c175 -47 325 -135 367 -216 57 -111 -44 -268 -271 -417
-671 -442 -2048 -612 -2660 -327 -189 87 -244 198 -165 329 58 96 194 212 352
300 26 14 50 26 53 26 4 0 3 -15 -1 -32 -3 -18 -9 -86 -13 -151 l-6 -119 -28
22 c-16 13 -39 40 -53 61 -27 44 -57 51 -74 18 -9 -17 -7 -31 15 -74 88 -180
369 -277 810 -277 743 -1 1594 294 1750 605 24 49 33 116 19 151 -9 22 -51 20
-64 -3 -5 -11 -10 -31 -10 -45 0 -14 -11 -37 -24 -52 l-23 -28 -23 70 c-13 38
-35 95 -51 127 -33 68 -34 68 100 32z"/>
</g>
</svg>
